<?xml version="1.0" standalone="no"?>
<!DOCTYPE svg PUBLIC "-//W3C//DTD SVG 20010904//EN"
 "http://www.w3.org/TR/2001/REC-SVG-20010904/DTD/svg10.dtd">
<svg version="1.0" xmlns="http://www.w3.org/2000/svg"
 width="110.000000pt" height="110.000000pt" viewBox="0 0 110.000000 110.000000"
 preserveAspectRatio="xMidYMid meet">
<metadata>
Created by potrace 1.14, written by Peter Selinger 2001-2017
</metadata>
<g transform="translate(0.000000,110.000000) scale(0.100000,-0.100000)"
fill="#000000" stroke="none">
<path d="M501 860 c-18 -5 -47 -18 -63 -30 -19 -14 -29 -17 -27 -8 3 28 -2 38
-21 38 -20 0 -20 -5 -18 -132 l3 -133 165 0 165 0 3 133 c3 129 2 132 -19 132
-12 0 -23 -8 -26 -20 -5 -20 -6 -20 -37 -1 -39 23 -81 30 -125 21z m116 -136
c32 -44 -5 -84 -77 -84 -71 0 -110 41 -77 82 16 21 27 23 89 21 37 -1 56 -7
65 -19z"/>
<path d="M484 705 c-10 -26 10 -36 62 -33 41 3 49 6 49 23 0 17 -8 20 -53 23
-41 2 -54 0 -58 -13z"/>
<path d="M277 552 c-12 -13 -17 -36 -17 -74 0 -42 -5 -59 -20 -73 -27 -24 -27
-65 0 -65 10 0 24 8 29 18 9 16 11 15 26 -5 9 -13 22 -20 30 -17 21 9 18 48
-5 69 -15 13 -20 31 -20 67 0 48 0 48 34 48 l34 0 4 -93 c3 -84 6 -97 31 -130
30 -40 65 -62 124 -77 l38 -10 -38 5 c-59 6 -108 36 -143 88 -27 39 -34 44
-44 32 -16 -19 -25 -19 -45 2 -16 16 -18 16 -27 0 -12 -23 -31 -21 -53 3 -15
17 -31 20 -92 20 -49 0 -73 4 -73 12 0 6 -2 9 -5 6 -10 -10 32 -93 78 -153 76
-100 177 -165 296 -191 223 -47 441 42 563 230 56 87 53 96 -30 96 -56 0 -72
-4 -87 -20 -22 -24 -38 -25 -56 -4 -11 14 -13 14 -21 0 -12 -22 -34 -20 -51 4
-14 20 -15 20 -26 -8 -17 -41 -80 -99 -116 -107 -25 -5 -23 -3 11 13 23 11 54
37 70 58 26 34 29 46 32 131 l4 93 29 0 c28 0 29 -1 29 -54 0 -35 -5 -58 -15
-66 -22 -18 -20 -60 4 -60 10 0 21 7 25 15 7 19 26 20 26 1 0 -20 27 -27 41
-10 13 16 -2 64 -21 64 -6 0 -10 27 -10 63 0 100 8 97 -282 97 -225 0 -246 -2
-261 -18z m347 -112 c-2 -108 -150 -121 -170 -15 -10 57 -5 60 87 58 l84 -2
-1 -41z"/>
<path d="M478 440 c5 -28 39 -70 57 -70 24 0 65 42 65 65 0 22 -5 24 -63 27
-63 3 -63 3 -59 -22z"/>
<path d="M342 420 c0 -14 2 -19 5 -12 2 6 2 18 0 25 -3 6 -5 1 -5 -13z"/>
</g>
</svg>
